<svg xmlns="http://www.w3.org/2000/svg" viewBox="-0.5 -0.5 16 16" id="Star--Streamline-Font-Awesome.svg" height="16" width="16"><desc>Star Streamline Icon: https://streamlinehq.com</desc><!--! Font Awesome Free 6.5.2 by @fontawesome - https://fontawesome.com License - https://fontawesome.com/license/free (Icons: CC BY 4.0, Fonts: SIL OFL 1.1, Code: MIT License) Copyright 2024 Fonticons, Inc.--><path d="M8.299731770833333 0.8737760416666666c-0.14753906249999998 -0.30621875 -0.45932552083333333 -0.5010833333333332 -0.8017317708333332 -0.5010833333333332s-0.65140625 0.1948645833333333 -0.8017317708333332 0.5010833333333332l-1.7899791666666667 3.682958333333333 -3.9975260416666663 0.5901640624999999c-0.33405468749999995 0.05010677083333333 -0.6124348958333332 0.28394531249999994 -0.7154348958333333 0.6040807291666667s-0.019486979166666665 0.6736796875 0.21991927083333332 0.9103020833333332l2.9007135416666663 2.870088541666666 -0.6848151041666666 4.055986979166666c-0.055674479166666666 0.33405468749999995 0.08351562499999998 0.6736770833333332 0.35910937499999995 0.871328125s0.6402734375 0.22270312499999997 0.9409218749999999 0.06402604166666666l3.5716067708333328 -1.9068984375 3.5716067708333328 1.9068984375c0.3006484375 0.15867708333333333 0.6653255208333333 0.13640625 0.9409218749999999 -0.06402604166666666s0.41478385416666663 -0.5372734374999999 0.35910937499999995 -0.871328125l-0.6875963541666666 -4.055986979166666 2.9007109374999995 -2.870088541666666c0.23940624999999996 -0.2366223958333333 0.325703125 -0.5901640624999999 0.21991927083333332 -0.9103020833333332s-0.3813776041666666 -0.5539739583333333 -0.7154348958333333 -0.6040807291666667l-4.0003098958333325 -0.5901640624999999L8.299731770833333 0.8737760416666666Z" stroke-width="1"></path></svg>